<svg width="142" height="36" viewBox="0 0 142 36" fill="none" xmlns="http://www.w3.org/2000/svg">
<path id="Anmol" d="M5.98722 35H0.396307L12.9588 0.0909081H19.044L31.6065 35H26.0156L16.1463 6.43182H15.8736L5.98722 35ZM6.92472 21.3295H25.0611V25.7614H6.92472V21.3295ZM41.3352 19.4545V35H36.2386V8.81818H41.1307V13.0795H41.4545C42.0568 11.6932 43 10.5795 44.2841 9.73864C45.5795 8.89773 47.2102 8.47727 49.1761 8.47727C50.9602 8.47727 52.5227 8.85227 53.8636 9.60227C55.2045 10.3409 56.2443 11.4432 56.983 12.9091C57.7216 14.375 58.0909 16.1875 58.0909 18.3466V35H52.9943V18.9602C52.9943 17.0625 52.5 15.5795 51.5114 14.5114C50.5227 13.4318 49.1648 12.892 47.4375 12.892C46.2557 12.892 45.2045 13.1477 44.2841 13.6591C43.375 14.1705 42.6534 14.9205 42.1193 15.9091C41.5966 16.8864 41.3352 18.0682 41.3352 19.4545ZM64.9261 35V8.81818H69.8182V13.0795H70.142C70.6875 11.6364 71.5795 10.5114 72.8182 9.70455C74.0568 8.88636 75.5398 8.47727 77.267 8.47727C79.017 8.47727 80.483 8.88636 81.6648 9.70455C82.858 10.5227 83.7386 11.6477 84.3068 13.0795H84.5795C85.2045 11.6818 86.1989 10.5682 87.5625 9.73864C88.9261 8.89773 90.5511 8.47727 92.4375 8.47727C94.8125 8.47727 96.75 9.22159 98.25 10.7102C99.7614 12.1989 100.517 14.4432 100.517 17.4432V35H95.4205V17.9205C95.4205 16.1477 94.9375 14.8636 93.9716 14.0682C93.0057 13.2727 91.8523 12.875 90.5114 12.875C88.8523 12.875 87.5625 13.3864 86.642 14.4091C85.7216 15.4205 85.2614 16.7216 85.2614 18.3125V35H80.1818V17.5966C80.1818 16.1761 79.7386 15.0341 78.8523 14.1705C77.9659 13.3068 76.8125 12.875 75.392 12.875C74.4261 12.875 73.5341 13.1307 72.7159 13.642C71.9091 14.142 71.2557 14.8409 70.7557 15.7386C70.267 16.6364 70.0227 17.6761 70.0227 18.858V35H64.9261ZM118.376 35.5284C115.922 35.5284 113.78 34.9659 111.95 33.8409C110.121 32.7159 108.7 31.142 107.689 29.1193C106.678 27.0966 106.172 24.733 106.172 22.0284C106.172 19.3125 106.678 16.9375 107.689 14.9034C108.7 12.8693 110.121 11.2898 111.95 10.1648C113.78 9.03977 115.922 8.47727 118.376 8.47727C120.831 8.47727 122.973 9.03977 124.803 10.1648C126.632 11.2898 128.053 12.8693 129.064 14.9034C130.075 16.9375 130.581 19.3125 130.581 22.0284C130.581 24.733 130.075 27.0966 129.064 29.1193C128.053 31.142 126.632 32.7159 124.803 33.8409C122.973 34.9659 120.831 35.5284 118.376 35.5284ZM118.393 31.25C119.984 31.25 121.303 30.8295 122.348 29.9886C123.393 29.1477 124.166 28.0284 124.666 26.6307C125.178 25.233 125.433 23.6932 125.433 22.0114C125.433 20.3409 125.178 18.8068 124.666 17.4091C124.166 16 123.393 14.8693 122.348 14.017C121.303 13.1648 119.984 12.7386 118.393 12.7386C116.791 12.7386 115.462 13.1648 114.405 14.017C113.359 14.8693 112.581 16 112.07 17.4091C111.57 18.8068 111.32 20.3409 111.32 22.0114C111.32 23.6932 111.57 25.233 112.07 26.6307C112.581 28.0284 113.359 29.1477 114.405 29.9886C115.462 30.8295 116.791 31.25 118.393 31.25ZM141.366 0.0909081V35H136.27V0.0909081H141.366Z" fill="url(#paint0_radial_13_6)"/>
<defs>
<radialGradient id="paint0_radial_13_6" cx="0" cy="0" r="1" gradientUnits="userSpaceOnUse" gradientTransform="translate(72 3.5) scale(78 14.5)">
<stop stop-color="#00D4FF"/>
</radialGradient>
</defs>
</svg>
